<?xml version="1.0" standalone="no"?>
<!DOCTYPE svg PUBLIC "-//W3C//DTD SVG 20010904//EN"
 "http://www.w3.org/TR/2001/REC-SVG-20010904/DTD/svg10.dtd">
<svg version="1.0" xmlns="http://www.w3.org/2000/svg"
 width="320.000000pt" height="190.000000pt" viewBox="0 0 320.000000 190.000000"
 preserveAspectRatio="xMidYMid meet">
<metadata>
Created by potrace 1.13, written by Peter Selinger 2001-2015
</metadata>
<g transform="translate(0.000000,190.000000) scale(0.100000,-0.100000)"
fill="#000000" stroke="none">
<path d="M2769 1890 c-193 -24 -321 -135 -321 -278 0 -105 35 -154 160 -227
l74 -42 -48 -28 c-126 -74 -184 -162 -184 -280 0 -86 21 -136 80 -189 64 -58
120 -79 223 -84 241 -12 439 140 440 338 0 113 -54 188 -187 256 -42 21 -76
41 -76 44 0 3 28 23 61 45 70 47 113 96 134 155 21 60 19 99 -10 157 -51 102
-183 153 -346 133z m126 -51 c22 -6 56 -28 76 -48 84 -84 76 -225 -17 -311
-74 -68 -74 -68 -207 -9 -150 66 -172 90 -172 190 0 72 14 103 67 142 54 41
175 58 253 36z m-41 -569 c121 -59 172 -99 197 -154 25 -55 24 -101 -5 -161
-42 -89 -111 -140 -209 -151 -118 -14 -235 54 -265 153 -26 88 -9 200 41 264
24 31 114 99 130 99 6 0 56 -22 111 -50z"/>
<path d="M10 1850 c0 -17 7 -20 43 -20 24 0 52 -6 63 -14 18 -14 19 -33 22
-516 2 -390 5 -502 15 -506 7 -2 36 -1 65 3 l52 8 290 445 c160 245 295 449
301 454 10 11 13 -722 3 -798 -8 -52 -17 -60 -86 -71 -24 -4 -38 -11 -38 -20
0 -13 30 -15 190 -15 105 0 193 -1 197 -2 4 -2 9 5 11 14 3 14 -7 18 -47 24
-93 12 -86 -28 -89 488 l-4 455 26 26 c19 19 35 25 71 25 39 0 45 3 45 20 0
20 -5 20 -167 18 l-167 -3 -178 -280 c-98 -154 -231 -361 -296 -460 l-117
-180 -3 120 c-1 66 -1 259 0 428 3 292 4 309 22 323 11 8 37 14 58 14 31 0 38
4 38 20 0 19 -7 20 -160 20 -153 0 -160 -1 -160 -20z"/>
<path d="M2100 1847 l-45 -22 -6 -325 c-3 -179 -6 -326 -7 -327 -1 -2 -97 -3
-212 -3 l-211 0 30 38 c76 95 109 217 118 443 l6 156 -24 6 c-13 3 -24 5 -25
4 -2 -1 -6 -61 -10 -132 -12 -245 -42 -338 -149 -472 -63 -77 -63 -78 -47
-105 l16 -28 254 0 254 0 -4 -105 c-4 -131 -8 -136 -113 -143 -59 -4 -75 -8
-73 -19 2 -12 44 -15 246 -16 217 -2 242 0 242 14 0 13 -14 17 -66 22 -93 7
-98 14 -102 142 l-4 105 86 0 86 0 0 45 0 45 -86 0 -86 0 4 350 c3 392 9 367
-72 327z"/>
<path d="M2970 429 c-63 -10 -92 -23 -133 -59 -48 -42 -71 -104 -65 -175 12
-147 158 -221 346 -176 l52 13 0 57 c0 31 5 62 12 69 9 9 -5 12 -62 11 -54 -1
-65 -3 -40 -8 35 -6 35 -6 38 -63 l3 -57 -43 -12 c-53 -14 -134 0 -177 31 -68
47 -94 186 -51 269 38 75 133 106 234 77 49 -14 57 -20 65 -49 6 -21 10 -25
10 -12 1 11 4 30 7 41 5 18 0 24 -28 32 -48 15 -116 19 -168 11z"/>
<path d="M23 414 c19 -10 40 -53 95 -186 38 -95 73 -183 77 -195 8 -29 32 -29
40 0 25 81 150 365 167 378 19 15 17 16 -43 16 -56 0 -61 -1 -36 -11 36 -13
35 -23 -36 -204 -45 -114 -56 -133 -64 -117 -22 43 -113 284 -113 299 0 10 9
16 25 16 14 0 25 4 25 9 0 4 -36 8 -81 8 -72 -1 -78 -2 -56 -13z"/>
<path d="M602 403 c-5 -16 -44 -105 -86 -199 -65 -143 -81 -172 -104 -180 -22
-8 -13 -10 48 -11 72 0 74 1 43 14 l-33 13 20 50 c11 28 20 53 20 55 0 3 43 5
95 5 l95 0 15 -37 c28 -67 30 -83 7 -83 -12 0 -23 -4 -27 -9 -3 -6 24 -9 69
-8 41 1 72 5 69 10 -2 4 -10 7 -18 7 -7 0 -31 42 -53 93 -22 50 -62 140 -87
200 -26 59 -51 107 -55 107 -4 0 -12 -12 -18 -27z m51 -145 l36 -88 -79 0
c-44 0 -80 3 -80 8 -1 19 74 182 80 175 4 -4 23 -47 43 -95z"/>
<path d="M898 417 l32 -10 0 -186 c0 -104 -4 -191 -9 -197 -6 -5 43 -10 135
-12 l144 -3 0 35 c0 19 3 42 7 52 4 11 2 15 -4 11 -6 -4 -13 -20 -16 -36 -7
-36 -36 -44 -137 -39 l-65 3 -3 165 c-1 91 0 175 3 187 3 12 17 25 32 31 21 7
6 9 -62 9 -75 0 -84 -2 -57 -10z"/>
<path d="M1220 382 c0 -26 4 -41 10 -37 6 3 10 17 10 29 0 27 21 36 88 36 l42
0 0 -185 0 -185 -32 -14 c-31 -13 -28 -13 57 -13 75 0 85 2 58 10 l-33 10 0
188 0 189 46 0 c59 0 84 -14 84 -47 0 -37 6 -26 12 22 l5 40 -173 0 -174 0 0
-43z"/>
<path d="M1618 413 l34 -14 -4 -178 c-2 -125 -7 -183 -16 -193 -11 -14 -1 -15
85 -14 112 2 152 17 183 69 44 71 15 137 -65 155 l-40 9 36 15 c85 37 95 132
17 157 -18 6 -85 10 -148 9 -108 -1 -113 -2 -82 -15z m196 -15 c31 -13 40 -38
31 -85 -5 -27 -13 -38 -40 -49 -19 -8 -50 -14 -70 -14 l-35 0 0 80 0 80 45 0
c24 0 55 -5 69 -12z m16 -178 c26 -14 43 -64 36 -104 -10 -52 -56 -86 -117
-86 l-49 0 0 106 0 107 56 -7 c31 -3 64 -11 74 -16z"/>
<path d="M2003 417 c15 -6 30 -21 33 -33 11 -41 0 -340 -13 -355 -10 -12 11
-14 133 -17 l144 -3 -1 53 -1 53 -10 -36 c-11 -42 -29 -49 -134 -49 l-64 0 0
95 0 95 53 0 c57 0 82 -13 90 -45 3 -11 5 12 4 50 0 39 -2 58 -4 44 -4 -23
-10 -28 -48 -33 -23 -4 -55 -4 -69 0 -25 6 -26 8 -26 90 l0 84 63 0 c78 0 107
-8 107 -29 0 -9 4 -22 9 -30 6 -9 10 1 12 33 l4 46 -155 -1 c-124 -1 -149 -3
-127 -12z"/>
<path d="M2378 415 l32 -14 0 -181 0 -181 -32 -13 c-30 -13 -27 -14 56 -14 82
1 86 2 57 14 l-31 13 2 183 3 183 57 3 c51 3 61 0 83 -22 30 -30 33 -83 7
-116 -10 -12 -39 -27 -66 -34 l-47 -12 36 -45 c21 -24 57 -72 82 -106 42 -59
46 -62 84 -60 33 1 36 3 20 12 -17 9 -161 186 -161 198 0 3 13 8 30 12 16 4
43 19 60 35 27 25 31 35 28 71 -2 32 -9 47 -31 63 -25 19 -43 21 -165 23 -124
1 -134 0 -104 -12z"/>
</g>
</svg>
